#!OML:ASF I:\Actors\actors\Patient Classification 2\Patient 1\Session 1\actor1.ASF
:FULLY-SPECIFIED
:DEGREES
527
root -1.73056 18.3677 4.5855 -0.371738 6.17355 -6.28286
lowerback 21.7055 1.57265 4.58089
upperback 5.83779 3.10384 0.77343
thorax -5.52709 1.49111 -2.5723
lowerneck -5.03228 17.4361 18.4728
upperneck 6.85344 23.6511 -16.1784
head 7.03999 11.4076 -5.36899
rclavicle -6.75868e-015 -1.03368e-014
rhumerus -43.881 46.2297 -122.324
rradius 132.226
rwrist 16.9919
rhand -27.9859 -15.1273
rfingers 7.12502
rthumb -1.37225 -45.1027
lclavicle -6.75868e-015 -1.03368e-014
lhumerus -40.7967 -40.159 122.579
lradius 121.877
lwrist 11.6061
lhand -29.5714 -47.7318
lfingers 7.12502
lthumb -2.90354 -17.7718
rfemur -5.99383 -2.57441 24.6529
rtibia 21.9222
rfoot -24.3927 -11.4657
rtoes -7.59811
lfemur -19.5019 -9.54337 -5.54898
ltibia 37.4212
lfoot -18.5655 3.94683
ltoes -58.4014
528
root -1.68631 18.3706 4.60898 -0.552774 6.27227 -6.33418
lowerback 21.8619 1.62146 4.6878
upperback 5.87668 3.20265 0.839839
thorax -5.55589 1.53824 -2.59184
lowerneck -5.11059 17.4192 18.3852
upperneck 6.84571 23.6331 -16.2433
head 7.0463 11.3908 -5.37527
rclavicle 4.33351e-014 -1.33186e-014
rhumerus -43.9615 46.3286 -122.332
rradius 132.259
rwrist 17.1312
rhand -28.1386 -15.1242
rfingers 7.12502
rthumb -1.51981 -45.0986
lclavicle 4.33351e-014 -1.33186e-014
lhumerus -40.6849 -40.3051 122.723
lradius 121.67
lwrist 11.7037
lhand -29.7605 -48.1917
lfingers 7.12502
lthumb -3.08614 -18.2343
rfemur -5.57335 -2.56664 24.532
rtibia 21.6694
rfoot -24.309 -11.4941
rtoes -7.81353
lfemur -19.2345 -9.60507 -5.6881
ltibia 37.4266
lfoot -18.7299 3.82002
ltoes -58.2871
529
root -1.64315 18.3738 4.63273 -0.731846 6.3782 -6.40357
lowerback 22.0085 1.6694 4.82311
upperback 5.90164 3.30679 0.904852
thorax -5.59226 1.5873 -2.63047
lowerneck -5.22961 17.4176 18.3064
upperneck 6.98578 23.6317 -16.2023
head 7.09543 11.3813 -5.34054
rclavicle 1.70955e-014 1.17283e-014
rhumerus -44.0255 46.3787 -122.346
rradius 132.288
rwrist 17.2829
rhand -28.179 -15.1015
rfingers 7.12502
rthumb -1.55877 -45.0755
lclavicle 1.70955e-014 1.17283e-014
lhumerus -40.8603 -40.3158 123.002
lradius 121.886
lwrist 11.8889
lhand -29.9557 -48.4426
lfingers 7.12502
lthumb -3.27467 -18.488
rfemur -5.18156 -2.56368 24.4424
rtibia 21.4539
rfoot -24.2894 -11.507
rtoes -7.64524
lfemur -18.9788 -9.74171 -5.80279
ltibia 37.4274
lfoot -18.8935 3.72324
ltoes -58.2478
530
root -1.60752 18.3752 4.64504 -0.681039 6.72107 -6.41259
lowerback 22.0193 1.66137 4.90187
upperback 5.83388 3.32082 0.942523
thorax -5.66822 1.59052 -2.64056
lowerneck -5.29223 17.4203 18.2801
upperneck 7.1331 23.6398 -16.1516
head 7.14406 11.3807 -5.31179
rclavicle 3.40419e-014 4.57205e-015
rhumerus -44.0474 46.3504 -122.353
rradius 132.316
rwrist 17.3608
rhand -28.2398 -14.9642
rfingers 7.12502
rthumb -1.61753 -44.9378
lclavicle 3.40419e-014 4.57205e-015
lhumerus -40.7051 -40.5238 123.131
lradius 121.653
lwrist 12.1177
lhand -30.308 -49.0635
lfingers 7.12502
lthumb -3.61492 -19.1144
rfemur -5.13018 -2.72109 24.3291
rtibia 21.3665
rfoot -24.3406 -11.586
rtoes -7.31972
lfemur -19.1062 -9.97489 -5.90221
ltibia 37.4507
lfoot -18.9349 3.52773
ltoes -58.1077
531
root -1.57381 18.3766 4.65673 -0.541088 7.08669 -6.36479
lowerback 21.9253 1.65422 4.91883
upperback 5.75426 3.31561 0.961662
thorax -5.70716 1.5859 -2.62636
lowerneck -5.22363 17.4171 18.3031
upperneck 7.1052 23.6532 -16.2264
head 7.13943 11.3887 -5.34084
rclavicle -6.47541e-014 -1.70955e-014
rhumerus -44.1204 46.3364 -122.427
rradius 132.34
rwrist 17.3347
rhand -28.4556 -14.8148
rfingers 7.12502
rthumb -1.82597 -44.7868
lclavicle -6.47541e-014 -1.70955e-014
lhumerus -41.0336 -40.5402 123.295
lradius 121.978
lwrist 12.2012
lhand -30.5391 -49.9265
lfingers 7.12502
lthumb -3.8381 -19.9813
rfemur -5.1452 -2.91633 24.1592
rtibia 21.2415
rfoot -24.3586 -11.6585
rtoes -7.02736
lfemur -19.3128 -10.1804 -6.04679
ltibia 37.4538
lfoot -18.9192 3.37368
ltoes -57.9699
532
root -1.557 18.3754 4.64734 -0.00969861 7.9017 -6.32543
lowerback 21.6216 1.52598 4.86508
upperback 5.52931 3.13663 1.03767
thorax -5.81671 1.49342 -2.46215
lowerneck -5.09007 17.4157 18.3471
upperneck 7.0354 23.6869 -16.3952
head 7.13006 11.4073 -5.40317
rclavicle -2.57426e-014 -1.59028e-014
rhumerus -44.2751 46.4165 -122.54
rradius 132.399
rwrist 17.3219
rhand -28.6837 -14.6478
rfingers 7.12502
rthumb -2.04628 -44.6177
lclavicle -2.57426e-014 -1.59028e-014
lhumerus -40.7661 -40.6722 123.364
lradius 121.543
lwrist 12.2318
lhand -30.974 -51.1907
lfingers 7.12502
lthumb -4.25799 -21.2536
rfemur -5.72967 -3.27416 24.0927
rtibia 21.2918
rfoot -24.5757 -11.9225
rtoes -6.71165
lfemur -20.2238 -10.3673 -6.01929
ltibia 37.5013
lfoot -18.6689 2.9796
ltoes -57.9997
533
root -1.51247 18.3791 4.68075 -0.506988 7.69255 -6.37331
lowerback 21.9799 1.66137 5.01309
upperback 5.67803 3.36139 1.06081
thorax -5.81567 1.60341 -2.58925
lowerneck -5.0977 17.4336 18.3196
upperneck 7.05037 23.7185 -16.4141
head 7.1409 11.4205 -5.39836
rclavicle -5.86415e-015 -4.07509e-015
rhumerus -44.2986 46.5251 -122.568
rradius 132.47
rwrist 17.4082
rhand -28.7939 -14.4675
rfingers 7.12502
rthumb -2.15264 -44.4364
lclavicle -5.86415e-015 -4.07509e-015
lhumerus -40.5921 -40.7557 123.439
lradius 121.543
lwrist 12.2494
lhand -31.2278 -52.234
lfingers 7.12502
lthumb -4.50313 -22.3019
rfemur -5.00243 -3.14028 23.9567
rtibia 21.2137
rfoot -24.5314 -11.8432
rtoes -7.01782
lfemur -19.4417 -10.3837 -6.24616
ltibia 37.4753
lfoot -18.9373 3.01575
ltoes -57.9585
534
root -1.48977 18.3796 4.68123 -0.0428508 8.31676 -6.30204
lowerback 21.5866 1.58617 5.01188
upperback 5.51815 3.24942 1.07693
thorax -5.79609 1.54812 -2.53002
lowerneck -5.13736 17.4799 18.2747
upperneck 7.05973 23.7677 -16.3245
head 7.14046 11.4446 -5.35284
rclavicle 8.10048e-015 9.98893e-015
rhumerus -44.2879 46.6464 -122.629
rradius 132.517
rwrist 17.4227
rhand -28.9059 -14.2428
rfingers 7.12502
rthumb -2.26085 -44.2106
lclavicle 8.10048e-015 9.98893e-015
lhumerus -40.2459 -40.943 123.442
lradius 121.213
lwrist 12.293
lhand -31.565 -53.5946
lfingers 7.12502
lthumb -4.82867 -23.6697
rfemur -5.48097 -3.45467 23.8171
rtibia 21.2562
rfoot -24.5814 -12.0221
rtoes -7.21389
lfemur -20.1755 -10.5607 -6.29312
ltibia 37.5061
lfoot -18.8211 2.71852
ltoes -57.9407
535
root -1.44554 18.3831 4.7159 -0.545948 8.07726 -6.18004
lowerback 21.8981 1.73392 5.02431
upperback 5.68202 3.45253 1.03152
thorax -5.75952 1.65037 -2.64639
lowerneck -5.04358 17.5265 18.3581
upperneck 7.0084 23.8421 -16.3819
head 7.13922 11.4856 -5.37423
rclavicle 1.33931e-014 7.45443e-016
rhumerus -44.2526 46.7538 -122.653
rradius 132.568
rwrist 17.3067
rhand -28.9238 -14.0809
rfingers 7.12502
rthumb -2.27814 -44.0485
lclavicle 1.33931e-014 7.45443e-016
lhumerus -40.4262 -41.0101 123.466
lradius 121.505
lwrist 12.2071
lhand -31.7472 -54.6875
lfingers 7.12502
lthumb -5.00464 -24.7666
rfemur -4.72629 -3.4089 23.4711
rtibia 21.1911
rfoot -24.4788 -11.81
rtoes -7.25408
lfemur -19.3285 -10.6474 -6.71444
ltibia 37.468
lfoot -19.1571 2.77552
ltoes -57.8346
